<?xml version="1.0" encoding="utf-8"?>
<!-- Generator: Adobe Illustrator 24.3.0, SVG Export Plug-In . SVG Version: 6.00 Build 0)  -->
<svg version="1.1" id="レイヤー_1" xmlns="http://www.w3.org/2000/svg" xmlns:xlink="http://www.w3.org/1999/xlink" x="0px"
	 y="0px" width="260px" height="70px" viewBox="260 0 500 300" style="enable-background:new 0 0 500 300;" xml:space="preserve">
<style type="text/css">
	.st0{font-family:'AmericanOak-Serif';}
	.st1{font-size:200.1307px;}
	.st2{display:none;enable-background:new    ;}
	.st3{display:inline;}
	.st4{font-size:103.7959px;}
	.st5{display:none;}
</style>
<text transform="matrix(1 0 0 1 100.4673 230.9121)" class="st0 st1">VIDEO CREATORS</text>
<g class="st2">
	<path class="st3" d="M57.9,115.8v0.8c0,0.3-0.1,0.4-0.4,0.4h-0.4c-0.8,0-1.5,0.3-2.1,0.9c-0.6,0.6-1,1.3-1.1,2.2l-9.3,52.8h-6.9
		l-9.4-53.4c-0.2-0.8-0.6-1.4-1.2-1.8c-0.6-0.4-1.2-0.7-2-0.7h-0.2c-0.3,0-0.4-0.1-0.4-0.4v-0.8c0-0.3,0.1-0.4,0.4-0.4h16.4
		c0.3,0,0.4,0.1,0.4,0.4v0.8c0,0.3-0.1,0.4-0.4,0.4h-0.6c-1.1,0-1.7,0.7-1.7,2.1c0,0.4,0,0.7,0.1,0.8l6.4,36.3l6.3-36.2
		c0.1-0.9-0.1-1.6-0.7-2.1c-0.6-0.5-1.3-0.8-2.2-0.8h-0.4c-0.3,0-0.4-0.1-0.4-0.4v-0.8c0-0.3,0.1-0.4,0.4-0.4h9.2
		C57.7,115.4,57.9,115.6,57.9,115.8z"/>
	<path class="st3" d="M73.3,117.8c-0.4,0.5-0.6,1.1-0.6,2v48.8c0,0.8,0.2,1.5,0.6,2s1,0.7,1.8,0.7h0.4c0.3,0,0.4,0.1,0.4,0.4v0.8
		c0,0.3-0.1,0.4-0.4,0.4H59.9c-0.3,0-0.4-0.1-0.4-0.4v-0.8c0-0.3,0.1-0.4,0.4-0.4h0.4c0.8,0,1.4-0.2,1.8-0.7s0.6-1.1,0.6-2v-48.8
		c0-0.8-0.2-1.5-0.6-2c-0.4-0.5-1-0.7-1.8-0.7h-0.4c-0.3,0-0.4-0.1-0.4-0.4v-0.8c0-0.3,0.1-0.4,0.4-0.4h15.6c0.3,0,0.4,0.1,0.4,0.4
		v0.8c0,0.3-0.1,0.4-0.4,0.4h-0.4C74.3,117.1,73.7,117.3,73.3,117.8z"/>
	<path class="st3" d="M105.3,119.6c2.2,2.8,3.9,6.4,5.1,10.8c1.1,4.5,1.7,9.2,1.7,14.2c0,4.9-0.6,9.6-1.7,13.9
		c-1.1,4.3-2.8,7.8-5,10.5c-2.2,2.7-4.9,4-8.1,4H80.5c-0.3,0-0.4-0.1-0.4-0.4v-0.8c0-0.3,0.1-0.4,0.4-0.4h0.4c0.8,0,1.4-0.2,1.8-0.7
		s0.6-1.1,0.6-2v-48.8c0-0.8-0.2-1.5-0.6-2c-0.4-0.5-1-0.7-1.8-0.7h-0.4c-0.3,0-0.4-0.1-0.4-0.4v-0.8c0-0.3,0.1-0.4,0.4-0.4h16.8
		C100.4,115.4,103.1,116.8,105.3,119.6z M101,163.7c0.8-5.1,1.3-11.2,1.3-18.3c0-7.6-0.4-14.2-1.3-19.8c-0.9-5.7-2.1-8.5-3.6-8.5
		h-4.1v54.2h4.1C98.9,171.3,100.1,168.7,101,163.7z"/>
	<path class="st3" d="M147,115.8v7.9c0,0.3-0.1,0.4-0.4,0.4h-0.8c-0.3,0-0.4-0.1-0.4-0.4v-0.1c0-2.1-0.6-3.7-1.7-4.8
		s-2.8-1.7-4.8-1.7h-4.9c-0.8,0-1.4,0.2-1.8,0.7c-0.4,0.5-0.6,1.1-0.6,2v22.8h1.9c2.1,0,3.7-0.6,4.8-1.8c1.1-1.2,1.7-2.8,1.7-4.8
		V136c0-0.3,0.1-0.4,0.4-0.4h0.8c0.3,0,0.4,0.1,0.4,0.4v14.9c0,0.3-0.1,0.4-0.4,0.4h-0.8c-0.3,0-0.4-0.1-0.4-0.4v-0.1
		c0-2.1-0.6-3.7-1.7-4.8c-1.1-1.2-2.8-1.7-4.8-1.7h-1.9v24.3c0,0.8,0.2,1.5,0.6,2s1,0.7,1.8,0.7h4.9c2.1,0,3.7-0.6,4.8-1.8
		c1.1-1.2,1.7-2.8,1.7-4.8v-0.1c0-0.3,0.1-0.4,0.4-0.4h0.8c0.3,0,0.4,0.1,0.4,0.4v7.9c0,0.3-0.1,0.4-0.4,0.4h-27.9
		c-0.3,0-0.4-0.1-0.4-0.4v-0.8c0-0.3,0.1-0.4,0.4-0.4h0.4c0.8,0,1.4-0.2,1.8-0.7s0.6-1.1,0.6-2v-48.8c0-0.8-0.2-1.5-0.6-2
		c-0.4-0.5-1-0.7-1.8-0.7h-0.4c-0.3,0-0.4-0.1-0.4-0.4v-0.8c0-0.3,0.1-0.4,0.4-0.4h27.9C146.9,115.4,147,115.6,147,115.8z"/>
	<path class="st3" d="M155.8,170.3c-2.6-2.2-3.9-5.1-3.9-8.9v-34.5c0-3.7,1.3-6.7,3.9-8.9c2.6-2.2,6.1-3.3,10.6-3.3
		c4.5,0,8,1.1,10.6,3.3c2.6,2.2,3.9,5.1,3.9,8.9v34.5c0,3.8-1.3,6.7-3.9,8.9c-2.6,2.2-6.1,3.2-10.6,3.2
		C161.9,173.6,158.4,172.5,155.8,170.3z M171.1,161.4v-34.5c0-7-1.5-10.5-4.6-10.5c-3.1,0-4.7,3.5-4.7,10.5v34.5
		c0,3.7,0.4,6.3,1.2,8c0.8,1.7,2,2.5,3.5,2.5C169.5,171.9,171.1,168.4,171.1,161.4z"/>
	<path class="st3" d="M219.3,171.7c3.6,0,6.3-1.3,8.3-3.9c1.9-2.6,2.9-5.9,2.9-10c0-0.3,0.1-0.4,0.4-0.4h0.8c0.3,0,0.4,0.1,0.4,0.4
		c0,2.5-0.4,5-1.3,7.3c-0.9,2.4-2.3,4.3-4.2,5.9s-4.4,2.3-7.3,2.3c-4.5,0-8.1-1.1-10.7-3.2c-2.6-2.2-3.9-5.1-3.9-8.9v-34
		c0-3.8,1.3-6.7,3.9-8.9c2.6-2.2,6.1-3.2,10.7-3.2c1.6,0,2.9,0.2,3.9,0.5c1,0.4,2,0.9,3.2,1.5c0.4,0.3,0.8,0.5,1.2,0.7
		c0.4,0.2,0.8,0.3,1.2,0.3c0.5,0,0.9-0.2,1.2-0.6s0.5-1,0.5-1.7c0-0.3,0.1-0.4,0.4-0.4h0.8c0.3,0,0.4,0.1,0.4,0.4v14.8
		c0,0.3-0.1,0.4-0.4,0.4h-0.8c-0.3,0-0.4-0.1-0.4-0.4c0-2.6-0.5-4.9-1.4-7.1c-1-2.1-2.3-3.8-4-5c-1.7-1.2-3.6-1.8-5.7-1.8
		c-3.1,0-4.7,3.5-4.7,10.5v34C214.6,168.2,216.1,171.7,219.3,171.7z"/>
	<path class="st3" d="M273,171.7v0.8c0,0.3-0.1,0.4-0.4,0.4H257c-0.3,0-0.4-0.1-0.4-0.4v-0.8c0-0.3,0.1-0.4,0.4-0.4h0.4
		c0.5,0,0.9-0.2,1.2-0.5c0.3-0.3,0.4-0.7,0.4-1.3c0-0.4-0.1-0.9-0.2-1.4l-9.4-22.4v22.8c0,0.8,0.2,1.5,0.6,2c0.4,0.5,1,0.7,1.8,0.7
		h0.4c0.3,0,0.4,0.1,0.4,0.4v0.8c0,0.3-0.1,0.4-0.4,0.4h-15.6c-0.3,0-0.4-0.1-0.4-0.4v-0.8c0-0.3,0.1-0.4,0.4-0.4h0.4
		c0.8,0,1.4-0.2,1.8-0.7c0.4-0.5,0.6-1.1,0.6-2v-48.8c0-0.8-0.2-1.5-0.6-2c-0.4-0.5-1-0.7-1.8-0.7h-0.4c-0.3,0-0.4-0.1-0.4-0.4v-0.8
		c0-0.3,0.1-0.4,0.4-0.4h16c3.7,0,6.8,0.7,9.4,2.1c2.6,1.4,4.5,3.2,5.8,5.5c1.3,2.2,2,4.7,2,7.2c0,3.2-1,6.1-3,8.9
		c-2,2.7-4.8,4.7-8.4,5.7l10.8,24.9c0.8,1,1.8,1.6,3,1.6h0.4C272.8,171.3,273,171.4,273,171.7z M249.3,117.1v27h2.5
		c2.5,0,4.5-1.4,6-4.3c1.5-2.9,2.2-6.2,2.2-10c0-3.5-0.6-6.5-1.9-9c-1.3-2.5-3.1-3.7-5.4-3.7H249.3z"/>
	<path class="st3" d="M303.4,115.8v7.9c0,0.3-0.1,0.4-0.4,0.4h-0.8c-0.3,0-0.4-0.1-0.4-0.4v-0.1c0-2.1-0.6-3.7-1.7-4.8
		c-1.2-1.1-2.8-1.7-4.8-1.7h-4.9c-0.8,0-1.4,0.2-1.8,0.7c-0.4,0.5-0.6,1.1-0.6,2v22.8h1.9c2.1,0,3.7-0.6,4.8-1.8
		c1.1-1.2,1.7-2.8,1.7-4.8V136c0-0.3,0.1-0.4,0.4-0.4h0.8c0.3,0,0.4,0.1,0.4,0.4v14.9c0,0.3-0.1,0.4-0.4,0.4h-0.8
		c-0.3,0-0.4-0.1-0.4-0.4v-0.1c0-2.1-0.6-3.7-1.7-4.8c-1.2-1.2-2.8-1.7-4.8-1.7h-1.9v24.3c0,0.8,0.2,1.5,0.6,2
		c0.4,0.5,1,0.7,1.8,0.7h4.9c2.1,0,3.7-0.6,4.8-1.8c1.1-1.2,1.7-2.8,1.7-4.8v-0.1c0-0.3,0.1-0.4,0.4-0.4h0.8c0.3,0,0.4,0.1,0.4,0.4
		v7.9c0,0.3-0.1,0.4-0.4,0.4H275c-0.3,0-0.4-0.1-0.4-0.4v-0.8c0-0.3,0.1-0.4,0.4-0.4h0.4c0.8,0,1.4-0.2,1.8-0.7
		c0.4-0.5,0.6-1.1,0.6-2v-48.8c0-0.8-0.2-1.5-0.6-2c-0.4-0.5-1-0.7-1.8-0.7H275c-0.3,0-0.4-0.1-0.4-0.4v-0.8c0-0.3,0.1-0.4,0.4-0.4
		H303C303.2,115.4,303.4,115.6,303.4,115.8z"/>
	<path class="st3" d="M339,171.7v0.8c0,0.3-0.1,0.4-0.4,0.4h-16.4c-0.3,0-0.4-0.1-0.4-0.4v-0.8c0-0.3,0.1-0.4,0.4-0.4h0.6
		c1.1,0,1.7-0.7,1.7-2.1c0-0.4,0-0.7-0.1-0.8l-1.6-9.3h-9.4l-1.7,9.4c-0.1,0.3-0.1,0.7-0.1,1.1c0,0.5,0.1,0.9,0.3,1.2
		c0.2,0.2,0.6,0.4,1.2,0.4h0.4c0.3,0,0.4,0.1,0.4,0.4v0.8c0,0.3-0.1,0.4-0.4,0.4h-7.6c-0.3,0-0.4-0.1-0.4-0.4v-0.8
		c0-0.3,0.1-0.4,0.4-0.4h0.4c0.8,0,1.5-0.3,2.1-0.9c0.6-0.6,1-1.3,1.2-2.2l9.3-52.8h6.9l9.4,53.4c0.2,0.8,0.6,1.4,1.2,1.8
		c0.6,0.4,1.2,0.7,2,0.7h0.2C338.9,171.3,339,171.4,339,171.7z M322.4,157.1l-4.4-25l-4.4,25H322.4z"/>
	<path class="st3" d="M372.3,115.8v7.9c0,0.3-0.1,0.4-0.4,0.4H371c-0.3,0-0.4-0.1-0.4-0.4v-0.1c0-2.1-0.6-3.7-1.7-4.8
		c-1.2-1.1-2.8-1.7-4.8-1.7h-0.8c-0.8,0-1.4,0.2-1.8,0.7c-0.4,0.5-0.6,1.1-0.6,2v48.8c0,0.8,0.2,1.5,0.6,2c0.4,0.5,1,0.7,1.8,0.7
		h0.4c0.3,0,0.4,0.1,0.4,0.4v0.8c0,0.3-0.1,0.4-0.4,0.4H348c-0.3,0-0.4-0.1-0.4-0.4v-0.8c0-0.3,0.1-0.4,0.4-0.4h0.4
		c0.8,0,1.4-0.2,1.8-0.7c0.4-0.5,0.6-1.1,0.6-2v-48.8c0-0.8-0.2-1.5-0.6-2c-0.4-0.5-1-0.7-1.8-0.7h-0.8c-2,0-3.6,0.6-4.8,1.7
		c-1.2,1.1-1.8,2.8-1.8,4.8v0.1c0,0.3-0.1,0.4-0.4,0.4h-0.8c-0.3,0-0.4-0.1-0.4-0.4v-7.9c0-0.3,0.1-0.4,0.4-0.4h32
		C372.1,115.4,372.3,115.6,372.3,115.8z"/>
	<path class="st3" d="M378.6,170.3c-2.6-2.2-3.9-5.1-3.9-8.9v-34.5c0-3.7,1.3-6.7,3.9-8.9c2.6-2.2,6.1-3.3,10.6-3.3
		c4.5,0,8,1.1,10.6,3.3c2.6,2.2,3.9,5.1,3.9,8.9v34.5c0,3.8-1.3,6.7-3.9,8.9c-2.6,2.2-6.1,3.2-10.6,3.2
		C384.7,173.6,381.2,172.5,378.6,170.3z M393.9,161.4v-34.5c0-7-1.5-10.5-4.6-10.5c-3.1,0-4.7,3.5-4.7,10.5v34.5
		c0,3.7,0.4,6.3,1.2,8c0.8,1.7,2,2.5,3.5,2.5C392.3,171.9,393.9,168.4,393.9,161.4z"/>
	<path class="st3" d="M444.6,171.7v0.8c0,0.3-0.1,0.4-0.4,0.4h-15.6c-0.3,0-0.4-0.1-0.4-0.4v-0.8c0-0.3,0.1-0.4,0.4-0.4h0.4
		c0.5,0,0.9-0.2,1.2-0.5c0.3-0.3,0.4-0.7,0.4-1.3c0-0.4-0.1-0.9-0.2-1.4l-9.4-22.4v22.8c0,0.8,0.2,1.5,0.6,2c0.4,0.5,1,0.7,1.8,0.7
		h0.4c0.3,0,0.4,0.1,0.4,0.4v0.8c0,0.3-0.1,0.4-0.4,0.4h-15.6c-0.3,0-0.4-0.1-0.4-0.4v-0.8c0-0.3,0.1-0.4,0.4-0.4h0.4
		c0.8,0,1.4-0.2,1.8-0.7c0.4-0.5,0.6-1.1,0.6-2v-48.8c0-0.8-0.2-1.5-0.6-2c-0.4-0.5-1-0.7-1.8-0.7h-0.4c-0.3,0-0.4-0.1-0.4-0.4v-0.8
		c0-0.3,0.1-0.4,0.4-0.4h16c3.7,0,6.8,0.7,9.4,2.1c2.6,1.4,4.5,3.2,5.8,5.5c1.3,2.2,2,4.7,2,7.2c0,3.2-1,6.1-3,8.9
		c-2,2.7-4.8,4.7-8.4,5.7l10.8,24.9c0.8,1,1.8,1.6,3,1.6h0.4C444.5,171.3,444.6,171.4,444.6,171.7z M421,117.1v27h2.5
		c2.5,0,4.5-1.4,6-4.3c1.5-2.9,2.2-6.2,2.2-10c0-3.5-0.6-6.5-1.9-9c-1.3-2.5-3.1-3.7-5.4-3.7H421z"/>
	<path class="st3" d="M454.6,130c1.5,1.9,3.7,4.4,6.8,7.4c2.6,2.6,4.7,4.8,6.3,6.6c1.6,1.8,3,3.9,4.1,6.2c1.1,2.3,1.7,4.7,1.7,7.2
		c0,2.6-0.5,5.1-1.6,7.5c-1,2.4-2.6,4.4-4.8,6s-4.7,2.4-7.8,2.4c-1.2,0-2.2-0.2-3.1-0.5c-0.9-0.3-1.9-0.8-3-1.4
		c-1.2-0.7-2.1-1.1-2.8-1.1s-1.1,0.2-1.4,0.6c-0.3,0.4-0.4,0.9-0.4,1.5c0,0.3-0.1,0.4-0.4,0.4h-0.8c-0.3,0-0.4-0.1-0.4-0.4v-15.6
		c0-0.3,0.1-0.4,0.4-0.4h0.8c0.3,0,0.4,0.1,0.4,0.4c0,2.1,0.5,4.4,1.5,6.7c1,2.3,2.3,4.3,4,5.8c1.7,1.5,3.4,2.3,5.3,2.3
		c1.2,0,2.4-0.3,3.7-1c1.2-0.7,2.3-1.6,3.1-2.8c0.8-1.2,1.2-2.5,1.2-4.1c0-2-0.7-4-2.2-6c-1.5-2-3.7-4.6-6.8-7.8
		c-2.6-2.7-4.7-5.1-6.3-7c-1.6-1.9-3-4.1-4.1-6.4c-1.1-2.4-1.7-4.8-1.7-7.3c0-4.3,1.2-7.7,3.5-10.4c2.3-2.7,5.4-4,9.2-4
		c1.7,0,3.1,0.2,4.1,0.7c1.1,0.4,2.2,1.1,3.3,1.9c1,0.8,1.8,1.2,2.5,1.2s1.1-0.2,1.4-0.6c0.3-0.4,0.4-0.9,0.4-1.5v-0.4
		c0-0.3,0.1-0.4,0.4-0.4h0.8c0.3,0,0.4,0.1,0.4,0.4V131c0,0.3-0.1,0.4-0.4,0.4h-0.8c-0.3,0-0.4-0.1-0.4-0.4v-0.4
		c0-2.4-0.6-4.7-1.7-6.8c-1.1-2.1-2.6-3.9-4.5-5.2c-1.8-1.3-3.7-2-5.5-2c-2.1,0-3.7,0.7-4.8,2c-1.2,1.3-1.7,3.1-1.7,5.5
		C452.4,126.1,453.2,128,454.6,130z"/>
</g>
<text transform="matrix(1 0 0 1 6.7809 182.4945)" class="st2 st0 st4">FILM STORAGE</text>
<g class="st5">
	<path class="st3" d="M45.2,110.4v10c0,0.3-0.2,0.5-0.5,0.5h-1c-0.3,0-0.5-0.2-0.5-0.5v-0.1c0-2.6-0.7-4.7-2.2-6.1s-3.5-2.2-6.1-2.2
		h-6.2c-1,0-1.8,0.3-2.3,0.9s-0.8,1.5-0.8,2.5v30.9H28c2.6,0,4.7-0.7,6.1-2.2c1.5-1.5,2.2-3.5,2.2-6.1v-0.1c0-0.3,0.2-0.5,0.5-0.5h1
		c0.3,0,0.5,0.2,0.5,0.5v18.9c0,0.3-0.2,0.5-0.5,0.5h-1c-0.3,0-0.5-0.2-0.5-0.5v-0.1c0-2.6-0.7-4.7-2.2-6.1s-3.5-2.2-6.1-2.2h-2.4
		V177c0,1,0.3,1.9,0.8,2.5s1.3,0.9,2.3,0.9h0.5c0.3,0,0.5,0.2,0.5,0.5v1c0,0.3-0.2,0.5-0.5,0.5H9.4c-0.3,0-0.5-0.2-0.5-0.5v-1
		c0-0.3,0.2-0.5,0.5-0.5h0.5c1,0,1.8-0.3,2.3-0.9c0.5-0.6,0.8-1.5,0.8-2.5v-61.7c0-1-0.3-1.9-0.8-2.5s-1.3-0.9-2.3-0.9H9.4
		c-0.3,0-0.5-0.2-0.5-0.5v-1c0-0.3,0.2-0.5,0.5-0.5h35.3C45,109.8,45.2,110,45.2,110.4z"/>
	<path class="st3" d="M67.8,112.8c-0.5,0.6-0.8,1.5-0.8,2.5V177c0,1,0.3,1.9,0.8,2.5s1.3,0.9,2.3,0.9h0.5c0.3,0,0.5,0.2,0.5,0.5v1
		c0,0.3-0.2,0.5-0.5,0.5H50.9c-0.3,0-0.5-0.2-0.5-0.5v-1c0-0.3,0.2-0.5,0.5-0.5h0.5c1,0,1.8-0.3,2.3-0.9c0.5-0.6,0.8-1.5,0.8-2.5
		v-61.7c0-1-0.3-1.9-0.8-2.5s-1.3-0.9-2.3-0.9h-0.5c-0.3,0-0.5-0.2-0.5-0.5v-1c0-0.3,0.2-0.5,0.5-0.5h19.7c0.3,0,0.5,0.2,0.5,0.5v1
		c0,0.3-0.2,0.5-0.5,0.5h-0.5C69.1,111.9,68.3,112.2,67.8,112.8z"/>
	<path class="st3" d="M107.5,172v10c0,0.3-0.2,0.5-0.5,0.5H75.8c-0.3,0-0.5-0.2-0.5-0.5v-1c0-0.3,0.2-0.5,0.5-0.5h0.5
		c1,0,1.8-0.3,2.3-0.9c0.5-0.6,0.8-1.5,0.8-2.5v-61.7c0-1-0.3-1.9-0.8-2.5s-1.3-0.9-2.3-0.9h-0.5c-0.3,0-0.5-0.2-0.5-0.5v-1
		c0-0.3,0.2-0.5,0.5-0.5h19.7c0.3,0,0.5,0.2,0.5,0.5v1c0,0.3-0.2,0.5-0.5,0.5H95c-1,0-1.8,0.3-2.3,0.9s-0.8,1.5-0.8,2.5V177
		c0,1,0.3,1.9,0.8,2.5s1.3,0.9,2.3,0.9h2.1c2.6,0,4.7-0.7,6.1-2.2c1.5-1.5,2.2-3.5,2.2-6.1V172c0-0.3,0.2-0.5,0.5-0.5h1
		C107.3,171.5,107.5,171.7,107.5,172z"/>
	<path class="st3" d="M160.8,112.8c-0.5,0.6-0.8,1.5-0.8,2.5V177c0,1,0.3,1.9,0.8,2.5s1.3,0.9,2.3,0.9h0.5c0.3,0,0.5,0.2,0.5,0.5v1
		c0,0.3-0.2,0.5-0.5,0.5h-19.7c-0.3,0-0.5-0.2-0.5-0.5v-1c0-0.3,0.2-0.5,0.5-0.5h0.5c1,0,1.8-0.3,2.3-0.9c0.5-0.6,0.8-1.5,0.8-2.5
		v-55.5l-9.8,61h-9.3l-11.6-61.1V177c0,1,0.3,1.9,0.8,2.5s1.3,0.9,2.3,0.9h0.5c0.3,0,0.5,0.2,0.5,0.5v1c0,0.3-0.2,0.5-0.5,0.5h-9.3
		c-0.3,0-0.5-0.2-0.5-0.5v-1c0-0.3,0.2-0.5,0.5-0.5h0.5c1,0,1.8-0.3,2.3-0.9c0.5-0.6,0.8-1.5,0.8-2.5v-61.7c0-1-0.3-1.9-0.8-2.5
		s-1.3-0.9-2.3-0.9h-0.5c-0.3,0-0.5-0.2-0.5-0.5v-1c0-0.3,0.2-0.5,0.5-0.5h16l11,57.9l9.2-57.9h16.3c0.3,0,0.5,0.2,0.5,0.5v1
		c0,0.3-0.2,0.5-0.5,0.5h-0.5C162.1,111.9,161.3,112.2,160.8,112.8z"/>
	<path class="st3" d="M203.7,128.2c1.8,2.4,4.7,5.5,8.6,9.3c3.3,3.3,6,6,8,8.4c2,2.3,3.7,4.9,5.2,7.8s2.2,6,2.2,9.1
		c0,3.3-0.7,6.4-2,9.5s-3.3,5.6-6,7.6s-6,3-9.9,3c-1.5,0-2.8-0.2-3.9-0.6c-1.1-0.4-2.4-1-3.8-1.8c-1.5-0.9-2.7-1.3-3.5-1.3
		s-1.4,0.3-1.8,0.8c-0.3,0.5-0.5,1.2-0.5,1.9c0,0.3-0.2,0.5-0.5,0.5h-1c-0.3,0-0.5-0.2-0.5-0.5v-19.7c0-0.3,0.2-0.5,0.5-0.5h1
		c0.3,0,0.5,0.2,0.5,0.5c0,2.7,0.6,5.5,1.9,8.5c1.2,2.9,2.9,5.4,5,7.3c2.1,1.9,4.3,2.9,6.7,2.9c1.5,0,3.1-0.4,4.6-1.2
		c1.6-0.8,2.9-2,3.9-3.5s1.6-3.2,1.6-5.1c0-2.5-0.9-5-2.8-7.5c-1.8-2.5-4.7-5.8-8.6-9.8c-3.3-3.5-6-6.4-8-8.9s-3.7-5.2-5.2-8.1
		c-1.5-3-2.2-6.1-2.2-9.2c0-5.4,1.5-9.8,4.4-13.1c2.9-3.4,6.8-5,11.7-5c2.1,0,3.9,0.3,5.2,0.8c1.3,0.6,2.8,1.3,4.2,2.4
		c1.2,1,2.3,1.6,3.1,1.6s1.4-0.3,1.8-0.8c0.3-0.5,0.5-1.2,0.5-1.9v-0.5c0-0.3,0.2-0.5,0.5-0.5h1c0.3,0,0.5,0.2,0.5,0.5v18.7
		c0,0.3-0.2,0.5-0.5,0.5h-1c-0.3,0-0.5-0.2-0.5-0.5V129c0-3-0.7-5.9-2.2-8.6s-3.3-4.9-5.7-6.5c-2.3-1.7-4.7-2.5-7-2.5
		c-2.6,0-4.7,0.8-6.1,2.5c-1.5,1.7-2.2,4-2.2,7C201,123.3,201.9,125.8,203.7,128.2z"/>
	<path class="st3" d="M272.3,110.4v10c0,0.3-0.2,0.5-0.5,0.5h-1c-0.3,0-0.5-0.2-0.5-0.5v-0.1c0-2.6-0.7-4.7-2.2-6.1
		s-3.5-2.2-6.1-2.2h-1c-1,0-1.8,0.3-2.3,0.9s-0.8,1.5-0.8,2.5V177c0,1,0.3,1.9,0.8,2.5s1.3,0.9,2.3,0.9h0.5c0.3,0,0.5,0.2,0.5,0.5v1
		c0,0.3-0.2,0.5-0.5,0.5h-19.7c-0.3,0-0.5-0.2-0.5-0.5v-1c0-0.3,0.2-0.5,0.5-0.5h0.5c1,0,1.8-0.3,2.3-0.9c0.5-0.6,0.8-1.5,0.8-2.5
		v-61.7c0-1-0.3-1.9-0.8-2.5s-1.3-0.9-2.3-0.9h-1c-2.6,0-4.6,0.7-6.1,2.2s-2.2,3.5-2.2,6.1v0.1c0,0.3-0.2,0.5-0.5,0.5h-1
		c-0.3,0-0.5-0.2-0.5-0.5v-10c0-0.3,0.2-0.5,0.5-0.5H272C272.1,109.8,272.3,110,272.3,110.4z"/>
	<path class="st3" d="M280.3,179.2c-3.3-2.7-4.9-6.5-4.9-11.3v-43.6c0-4.7,1.6-8.4,4.9-11.2c3.3-2.8,7.8-4.2,13.4-4.2
		s10.1,1.4,13.4,4.2c3.3,2.8,4.9,6.5,4.9,11.2V168c0,4.8-1.6,8.5-4.9,11.3c-3.3,2.7-7.7,4.1-13.3,4.1
		C288,183.3,283.5,182,280.3,179.2z M299.6,168v-43.6c0-8.9-1.9-13.3-5.8-13.3s-5.9,4.4-5.9,13.3V168c0,4.6,0.5,8,1.5,10.1
		s2.5,3.2,4.4,3.2C297.6,181.2,299.6,176.8,299.6,168z"/>
	<path class="st3" d="M363.7,180.9v1c0,0.3-0.2,0.5-0.5,0.5h-19.7c-0.3,0-0.5-0.2-0.5-0.5v-1c0-0.3,0.2-0.5,0.5-0.5h0.5
		c0.6,0,1.1-0.2,1.5-0.6c0.3-0.4,0.5-0.9,0.5-1.6c0-0.6-0.1-1.1-0.3-1.8l-11.8-28.3V177c0,1,0.3,1.9,0.8,2.5s1.3,0.9,2.3,0.9h0.5
		c0.3,0,0.5,0.2,0.5,0.5v1c0,0.3-0.2,0.5-0.5,0.5h-19.7c-0.3,0-0.5-0.2-0.5-0.5v-1c0-0.3,0.2-0.5,0.5-0.5h0.5c1,0,1.8-0.3,2.3-0.9
		c0.5-0.6,0.8-1.5,0.8-2.5v-61.7c0-1-0.3-1.9-0.8-2.5s-1.3-0.9-2.3-0.9h-0.5c-0.3,0-0.5-0.2-0.5-0.5v-1c0-0.3,0.2-0.5,0.5-0.5H338
		c4.6,0,8.6,0.9,11.8,2.6c3.3,1.8,5.7,4.1,7.4,6.9c1.7,2.8,2.5,5.9,2.5,9.1c0,4-1.3,7.8-3.8,11.2c-2.5,3.5-6.1,5.9-10.6,7.3
		l13.6,31.4c1,1.3,2.2,2,3.8,2h0.5C363.6,180.4,363.7,180.6,363.7,180.9z M333.8,111.9V146h3.1c3.2,0,5.7-1.8,7.5-5.4
		c1.8-3.6,2.8-7.8,2.8-12.6c0-4.4-0.8-8.2-2.4-11.4c-1.6-3.1-3.9-4.7-6.9-4.7H333.8z"/>
	<path class="st3" d="M405.7,180.9v1c0,0.3-0.2,0.5-0.5,0.5h-20.8c-0.3,0-0.5-0.2-0.5-0.5v-1c0-0.3,0.2-0.5,0.5-0.5h0.7
		c1.5,0,2.2-0.9,2.2-2.6c0-0.5,0-0.8-0.1-1l-2.1-11.7h-11.9L371,177c-0.1,0.3-0.1,0.8-0.1,1.5s0.1,1.2,0.4,1.5s0.8,0.5,1.5,0.5h0.5
		c0.3,0,0.5,0.2,0.5,0.5v1c0,0.3-0.2,0.5-0.5,0.5h-9.5c-0.3,0-0.5-0.2-0.5-0.5v-1c0-0.3,0.2-0.5,0.5-0.5h0.5c1,0,1.9-0.4,2.7-1.1
		c0.8-0.7,1.2-1.6,1.5-2.8l11.7-66.7h8.7l11.9,67.5c0.3,1,0.8,1.7,1.5,2.3s1.6,0.8,2.5,0.8h0.3C405.5,180.4,405.7,180.6,405.7,180.9
		z M384.7,162.5l-5.6-31.6l-5.5,31.6H384.7z"/>
	<path class="st3" d="M450.1,151.5v1c0,0.3-0.2,0.5-0.5,0.5H449c-1,0-1.8,0.3-2.3,0.9c-0.5,0.6-0.8,1.5-0.8,2.5V168
		c0,4.8-1.6,8.5-4.9,11.3c-3.3,2.7-7.7,4.1-13.3,4.1c-5.7,0-10.2-1.4-13.5-4.1c-3.3-2.7-4.9-6.5-4.9-11.3v-43.6
		c0-4.8,1.6-8.5,4.9-11.3c3.3-2.7,7.7-4.1,13.5-4.1c2.1,0,3.8,0.2,5.1,0.5c1.3,0.3,2.6,0.8,3.9,1.3c0.2,0.1,0.6,0.2,1.2,0.5
		c0.6,0.2,1.2,0.4,1.8,0.4c0.4,0,0.9-0.2,1.3-0.6c0.5-0.4,0.7-0.8,0.7-1.2c0-0.3,0.2-0.5,0.5-0.5h1c0.3,0,0.5,0.2,0.5,0.5v18.7
		c0,0.3-0.2,0.5-0.5,0.5h-1c-0.3,0-0.5-0.2-0.5-0.5c0-3.3-0.6-6.2-1.8-8.9c-1.2-2.7-2.9-4.8-5.1-6.3s-4.6-2.3-7.2-2.3
		c-3.9,0-5.9,4.4-5.9,13.3V168c0,4.6,0.5,8,1.5,10.1s2.5,3.2,4.4,3.2c3.9,0,5.8-4.4,5.8-13.3v-11.5c0-1-0.3-1.9-0.8-2.5
		s-1.3-0.9-2.3-0.9h-0.5c-0.3,0-0.5-0.2-0.5-0.5v-1c0-0.3,0.2-0.5,0.5-0.5h19.7C449.9,150.9,450.1,151.1,450.1,151.5z"/>
	<path class="st3" d="M491.6,110.4v10c0,0.3-0.2,0.5-0.5,0.5h-1c-0.3,0-0.5-0.2-0.5-0.5v-0.1c0-2.6-0.7-4.7-2.2-6.1
		s-3.5-2.2-6.1-2.2H475c-1,0-1.8,0.3-2.3,0.9s-0.8,1.5-0.8,2.5v28.9h2.4c2.6,0,4.7-0.7,6.1-2.2c1.5-1.5,2.2-3.5,2.2-6.1v-0.1
		c0-0.3,0.2-0.5,0.5-0.5h1c0.3,0,0.5,0.2,0.5,0.5v18.9c0,0.3-0.2,0.5-0.5,0.5h-1c-0.3,0-0.5-0.2-0.5-0.5v-0.1c0-2.6-0.7-4.7-2.2-6.1
		s-3.5-2.2-6.1-2.2h-2.4V177c0,1,0.3,1.9,0.8,2.5s1.3,0.9,2.3,0.9h6.2c2.6,0,4.7-0.7,6.1-2.2c1.5-1.5,2.2-3.5,2.2-6.1V172
		c0-0.3,0.2-0.5,0.5-0.5h1c0.3,0,0.5,0.2,0.5,0.5v10c0,0.3-0.2,0.5-0.5,0.5h-35.3c-0.3,0-0.5-0.2-0.5-0.5v-1c0-0.3,0.2-0.5,0.5-0.5
		h0.5c1,0,1.8-0.3,2.3-0.9c0.5-0.6,0.8-1.5,0.8-2.5v-61.7c0-1-0.3-1.9-0.8-2.5s-1.3-0.9-2.3-0.9h-0.5c-0.3,0-0.5-0.2-0.5-0.5v-1
		c0-0.3,0.2-0.5,0.5-0.5H491C491.4,109.8,491.6,110,491.6,110.4z"/>
</g>
</svg>
